<svg width="24" height="24" viewBox="0 0 24 24" fill="none" xmlns="http://www.w3.org/2000/svg">
<path d="M21.533 6.23333L17.333 8.6V5.33333C17.333 4.97971 17.1925 4.64057 16.9425 4.39052C16.6924 4.14048 16.3533 4 15.9997 4H3.99967C3.29243 4 2.61415 4.28095 2.11406 4.78105C1.61396 5.28115 1.33301 5.95942 1.33301 6.66667V17.3333C1.33301 18.0406 1.61396 18.7189 2.11406 19.219C2.61415 19.719 3.29243 20 3.99967 20H15.9997C16.3533 20 16.6924 19.8595 16.9425 19.6095C17.1925 19.3594 17.333 19.0203 17.333 18.6667V15.3867L21.533 17.7533C21.6408 17.8237 21.7651 17.8645 21.8937 17.8716C22.0222 17.8787 22.1503 17.8519 22.2652 17.7938C22.38 17.7357 22.4776 17.6484 22.548 17.5406C22.6184 17.4329 22.6592 17.3085 22.6663 17.18V6.8C22.6581 6.67205 22.6165 6.5485 22.5456 6.44165C22.4748 6.33481 22.3771 6.24841 22.2625 6.19107C22.1478 6.13374 22.0201 6.10747 21.8921 6.11488C21.7641 6.1223 21.6403 6.16314 21.533 6.23333Z" fill="#9DA5B0"/>
</svg>
