<svg width="24" height="24" viewBox="0 0 24 24" fill="none" xmlns="http://www.w3.org/2000/svg">
<path d="M22.001 8.608L21.9951 15.9951C21.9952 16.8253 22.001 17 21.985 20C19.5 20 19.9951 19.9951 18.935 19.995L18.751 20H5.25099C4.42085 20 3.49512 20 2.00031 20C2.00081 19.4951 2.00599 17.9951 2.00599 16.934L2.00099 16.75V8.608L11.653 13.664C11.7604 13.7202 11.8798 13.7496 12.001 13.7496C12.1222 13.7496 12.2416 13.7202 12.349 13.664L22.001 8.608ZM5.25099 4H18.751C21.985 4 22.001 4.00004 22.001 4.00004C22.001 5.00026 22.001 6 21.985 6.924L12.001 12.154L2.01699 6.924C2.00099 5.5 1.9995 5.00011 2.00011 4.0001C3.50098 3.99999 4.50098 4 5.06499 4.005L5.25099 4Z" fill="#9DA5B0"/>
</svg>
