<svg width="25" height="25" viewBox="0 0 25 25" fill="none" xmlns="http://www.w3.org/2000/svg">
<path d="M5.07812 24.2188H3.51562C3.20482 24.2188 2.90675 24.0953 2.68698 23.8755C2.46722 23.6557 2.34375 23.3577 2.34375 23.0469V16.0156C2.34375 15.7048 2.46722 15.4068 2.68698 15.187C2.90675 14.9672 3.20482 14.8438 3.51562 14.8438H5.07812C5.38893 14.8438 5.687 14.9672 5.90677 15.187C6.12654 15.4068 6.25 15.7048 6.25 16.0156V23.0469C6.25 23.3577 6.12654 23.6557 5.90677 23.8755C5.687 24.0953 5.38893 24.2188 5.07812 24.2188Z" fill="#9DA5B0"/>
<path d="M16.0156 24.2188H14.4531C14.1423 24.2188 13.8443 24.0953 13.6245 23.8755C13.4047 23.6557 13.2812 23.3577 13.2812 23.0469V11.3281C13.2812 11.0173 13.4047 10.7193 13.6245 10.4995C13.8443 10.2797 14.1423 10.1563 14.4531 10.1562H16.0156C16.3264 10.1563 16.6245 10.2797 16.8443 10.4995C17.064 10.7193 17.1875 11.0173 17.1875 11.3281V23.0469C17.1875 23.3577 17.064 23.6557 16.8443 23.8755C16.6245 24.0953 16.3264 24.2188 16.0156 24.2188Z" fill="#9DA5B0"/>
<path d="M21.4844 24.2188H19.9219C19.6111 24.2188 19.313 24.0953 19.0932 23.8755C18.8735 23.6557 18.75 23.3577 18.75 23.0469V5.85938C18.75 5.54857 18.8735 5.2505 19.0932 5.03073C19.313 4.81096 19.6111 4.6875 19.9219 4.6875H21.4844C21.7952 4.6875 22.0932 4.81096 22.313 5.03073C22.5328 5.2505 22.6562 5.54857 22.6562 5.85938V23.0469C22.6562 23.3577 22.5328 23.6557 22.313 23.8755C22.0932 24.0953 21.7952 24.2188 21.4844 24.2188Z" fill="#9DA5B0"/>
<path d="M10.5469 24.2188H8.98438C8.67357 24.2188 8.3755 24.0953 8.15573 23.8755C7.93596 23.6557 7.8125 23.3577 7.8125 23.0469V1.95312C7.8125 1.64232 7.93596 1.34425 8.15573 1.12448C8.3755 0.904715 8.67357 0.78125 8.98438 0.78125H10.5469C10.8577 0.78125 11.1557 0.904715 11.3755 1.12448C11.5953 1.34425 11.7188 1.64232 11.7188 1.95312V23.0469C11.7188 23.3577 11.5953 23.6557 11.3755 23.8755C11.1557 24.0953 10.8577 24.2188 10.5469 24.2188Z" fill="#9DA5B0"/>
</svg>
