<svg width="24" height="24" viewBox="0 0 24 24" fill="none" xmlns="http://www.w3.org/2000/svg">
<path d="M16.1825 0.922852C14.5228 0.922852 13.0745 1.77854 12.4329 3.40408C13.7797 4.51547 14.712 6.23516 14.712 8.56685C14.712 11.0564 13.5378 13.3318 12.3175 14.7976C14.2615 15.5333 17.304 17.0075 18.1735 19.269C21.2363 19.0992 23.9705 18.4825 23.9705 16.7305V16.1536C23.9705 14.5475 21.1698 12.9755 18.6923 12.1438C18.5797 12.1069 17.8708 11.9352 18.3175 10.557C19.4806 9.34224 20.2791 7.37608 20.2791 5.45239C20.2791 2.48839 18.4366 0.922852 16.1815 0.922852H16.1825ZM8.28 3.77885C5.88 3.77885 3.80862 5.41731 3.80862 8.56685C3.80862 10.6253 4.78708 12.7262 6.02954 14.0185C6.51415 15.3099 5.63446 16.2293 5.45262 16.2985C2.94092 17.2179 0 18.8785 0 20.5382V21.1733C0 23.4339 4.31169 23.9425 8.30769 23.9425C12.3083 23.9425 16.5868 23.4339 16.5868 21.1733V20.5382C16.5868 18.8287 13.6255 17.1829 10.9902 16.2976C10.8702 16.2579 10.1123 15.4549 10.5868 13.9899H10.5582C11.7951 12.6976 12.8658 10.617 12.8658 8.56685C12.8658 5.41731 10.6772 3.77885 8.27815 3.77885H8.28Z" fill="#9DA5B0"/>
</svg>
